<?xml version="1.0" standalone="no"?><!DOCTYPE svg PUBLIC "-//W3C//DTD SVG 1.1//EN" "http://www.w3.org/Graphics/SVG/1.1/DTD/svg11.dtd"><svg t="1589186733141" class="icon" viewBox="0 0 1024 1024" version="1.1" xmlns="http://www.w3.org/2000/svg" p-id="1925" xmlns:xlink="http://www.w3.org/1999/xlink" width="200" height="200"><defs><style type="text/css"></style></defs><path d="M534.4 734.5h-47.1v-113a526.3 526.3 0 0 1-205-51l-58 97.8-40.6-24.1 57-96q-11.4-6.8-22.4-14.1A513.2 513.2 0 0 1 108 434.9l-74.7 74.3L0 475.8l79.3-78.9a496.5 496.5 0 0 1-48.2-89.3l43.6-18.1c34.5 83.2 93.1 154.2 169.7 205.3 78.5 52.4 170.6 80.1 266.4 80.1s187.9-27.7 266.5-80.1c76.6-51.1 135.3-122.1 169.7-205.3l43.6 18.1a496.6 496.6 0 0 1-47.3 88l80.7 80.3-33.3 33.4-75.9-75.5A513.1 513.1 0 0 1 803.5 534q-9.8 6.6-19.9 12.7l57.8 97.5-40.6 24.1-58.7-99a526.3 526.3 0 0 1-207.6 52.3z" fill="#707070" p-id="1926"></path></svg>