<?xml version="1.0" standalone="no"?><!DOCTYPE svg PUBLIC "-//W3C//DTD SVG 1.1//EN" "http://www.w3.org/Graphics/SVG/1.1/DTD/svg11.dtd"><svg t="1589186711419" class="icon" viewBox="0 0 1024 1024" version="1.1" xmlns="http://www.w3.org/2000/svg" p-id="1508" xmlns:xlink="http://www.w3.org/1999/xlink" width="200" height="200"><defs><style type="text/css"></style></defs><path d="M512 844.8c-66.8 0-135.2-17.1-203.5-50.8-53.9-26.6-107.7-63.5-160.1-109.8C59.7 605.8 6.3 528.4 4.1 525.1a23.3 23.3 0 0 1 0-26.3c2.2-3.3 55.6-80.7 144.3-159.1 52.4-46.3 106.3-83.2 160.1-109.8 68.3-33.7 136.7-50.8 203.5-50.8s135.2 17.2 203.5 50.9c53.9 26.6 107.7 63.5 160.1 109.8 88.7 78.4 142.1 155.8 144.3 159.1a23.3 23.3 0 0 1 0 26.3c-2.2 3.3-55.6 80.7-144.3 159.1-52.4 46.2-106.2 83.1-160.1 109.7-68.3 33.7-136.7 50.8-203.5 50.8zM52 512a960.8 960.8 0 0 0 128 138c49.2 43.4 99.6 77.9 149.6 102.5 61.6 30.3 123 45.7 182.4 45.7s121.1-15.5 182.9-46c50.2-24.8 100.6-59.4 149.9-103A958.1 958.1 0 0 0 972 512a960.7 960.7 0 0 0-128-138c-49.2-43.4-99.6-77.9-149.6-102.5-61.6-30.3-123-45.7-182.4-45.7s-121.1 15.5-182.9 46c-50.2 24.8-100.6 59.4-149.9 103A958 958 0 0 0 52 512z m460 169.9c-93.7 0-169.9-76.2-169.9-169.9S418.3 342.1 512 342.1 681.9 418.3 681.9 512 605.7 681.9 512 681.9z m0-293.2A123.3 123.3 0 1 0 635.3 512 123.5 123.5 0 0 0 512 388.7z" fill="#707070" p-id="1509"></path></svg>