<?xml version="1.0" standalone="no"?><!DOCTYPE svg PUBLIC "-//W3C//DTD SVG 1.1//EN" "http://www.w3.org/Graphics/SVG/1.1/DTD/svg11.dtd"><svg t="1589186723173" class="icon" viewBox="0 0 1024 1024" version="1.1" xmlns="http://www.w3.org/2000/svg" p-id="1742" xmlns:xlink="http://www.w3.org/1999/xlink" width="200" height="200"><defs><style type="text/css"></style></defs><path d="M855.808 465.152 798.72 465.152l0-178.176c0-158.208-128.512-286.976-286.72-286.976-157.952 0-286.72 128.768-286.72 286.976l0 178.176-57.088 0c-25.344 0-45.824 20.48-45.824 45.824l0 467.2c0 25.344 20.48 45.824 45.824 45.824l687.616 0c25.344 0 45.824-20.48 45.824-45.824L901.632 510.976C901.632 485.888 880.896 465.152 855.808 465.152zM158.464 510.976c0-5.376 4.352-9.984 9.984-9.984L225.28 500.992l0 82.176 35.84 0 0-82.176 501.504 0 0 82.176 35.84 0 0-82.176 57.088 0c5.376 0 9.984 4.352 9.984 9.984l0 467.2c0 5.376-4.352 9.984-9.984 9.984L168.192 988.16c-5.376 0-9.984-4.352-9.984-9.984L158.208 510.976zM261.376 465.152l0-178.176C261.376 148.736 373.76 36.096 512 36.096c138.24 0 250.624 112.64 250.624 251.136l0 178.176L261.376 465.408z" p-id="1743" fill="#707070"></path></svg>